<svg xmlns="http://www.w3.org/2000/svg" xmlns:xlink="http://www.w3.org/1999/xlink" width="500" zoomAndPan="magnify" viewBox="0 0 375 374.999991" height="500" preserveAspectRatio="xMidYMid meet" version="1.0"><defs><g/><clipPath id="8bdb6048d6"><path d="M 22.480469 22.480469 L 63.730469 22.480469 L 63.730469 352.480469 L 22.480469 352.480469 Z M 22.480469 22.480469 " clip-rule="nonzero"/></clipPath><clipPath id="114d7b05cb"><path d="M 311.261719 22.480469 L 352.511719 22.480469 L 352.511719 352.480469 L 311.261719 352.480469 Z M 311.261719 22.480469 " clip-rule="nonzero"/></clipPath><clipPath id="d680c7596f"><path d="M 0.261719 0.480469 L 41.511719 0.480469 L 41.511719 330.480469 L 0.261719 330.480469 Z M 0.261719 0.480469 " clip-rule="nonzero"/></clipPath><clipPath id="fda1567675"><rect x="0" width="42" y="0" height="331"/></clipPath><clipPath id="e60703f6f8"><rect x="0" width="199" y="0" height="335"/></clipPath><clipPath id="c417651ea9"><rect x="0" width="184" y="0" height="307"/></clipPath></defs><g clip-path="url(#8bdb6048d6)"><path fill="#2664eb" d="M 60.929688 352.535156 C 54.210938 352.535156 49.359375 350.902344 46.089844 347.539062 C 40.394531 341.683594 40.664062 331.804688 40.988281 320.359375 C 41.058594 317.554688 41.148438 314.644531 41.148438 311.679688 L 41.148438 214 C 41.148438 205.949219 37.125 198.511719 30.386719 194.128906 L 23.757812 189.800781 C 23.003906 189.261719 22.535156 188.417969 22.535156 187.519531 C 22.535156 186.601562 22.984375 185.757812 23.757812 185.253906 C 34.644531 178.105469 41.148438 166.066406 41.148438 153.058594 L 41.148438 63.355469 C 41.148438 60.371094 41.078125 57.480469 40.988281 54.675781 C 40.664062 43.234375 40.394531 33.332031 46.089844 27.496094 C 49.359375 24.136719 54.210938 22.5 60.929688 22.5 C 62.421875 22.5 63.625 23.703125 63.625 25.195312 C 63.625 26.6875 62.421875 27.890625 60.929688 27.890625 C 55.738281 27.890625 52.144531 28.984375 49.953125 31.25 C 45.839844 35.472656 46.089844 44.3125 46.378906 54.535156 C 46.449219 57.371094 46.539062 60.320312 46.539062 63.371094 L 46.539062 153.078125 C 46.539062 166.570312 40.414062 179.128906 29.992188 187.410156 L 33.332031 189.601562 C 41.597656 195.007812 46.539062 204.117188 46.539062 214 L 46.539062 311.679688 C 46.539062 314.734375 46.449219 317.664062 46.378906 320.519531 C 46.089844 330.742188 45.855469 339.582031 49.953125 343.804688 C 52.164062 346.066406 55.753906 347.164062 60.929688 347.164062 C 62.421875 347.164062 63.625 348.367188 63.625 349.859375 C 63.625 351.351562 62.421875 352.554688 60.929688 352.554688 Z M 60.929688 352.535156 " fill-opacity="1" fill-rule="nonzero"/></g><g clip-path="url(#114d7b05cb)"><g transform="matrix(1, 0, 0, 1, 311, 22)"><g clip-path="url(#fda1567675)"><g clip-path="url(#d680c7596f)"><path fill="#2664eb" d="M 3.066406 330.535156 C 9.785156 330.535156 14.636719 328.902344 17.90625 325.539062 C 23.601562 319.683594 23.332031 309.804688 23.007812 298.359375 C 22.9375 295.554688 22.847656 292.644531 22.847656 289.679688 L 22.847656 192 C 22.847656 183.949219 26.871094 176.511719 33.609375 172.128906 L 40.238281 167.800781 C 40.992188 167.261719 41.460938 166.417969 41.460938 165.519531 C 41.460938 164.601562 41.011719 163.757812 40.238281 163.253906 C 29.351562 156.105469 22.847656 144.066406 22.847656 131.058594 L 22.847656 41.355469 C 22.847656 38.371094 22.917969 35.480469 23.007812 32.675781 C 23.332031 21.234375 23.601562 11.332031 17.90625 5.496094 C 14.636719 2.136719 9.785156 0.5 3.066406 0.5 C 1.574219 0.5 0.371094 1.703125 0.371094 3.195312 C 0.371094 4.6875 1.574219 5.890625 3.066406 5.890625 C 8.257812 5.890625 11.851562 6.984375 14.042969 9.25 C 18.15625 13.472656 17.90625 22.3125 17.617188 32.535156 C 17.546875 35.371094 17.457031 38.320312 17.457031 41.371094 L 17.457031 131.078125 C 17.457031 144.570312 23.582031 157.128906 34.003906 165.410156 L 30.660156 167.601562 C 22.398438 173.007812 17.457031 182.117188 17.457031 192 L 17.457031 289.679688 C 17.457031 292.734375 17.546875 295.664062 17.617188 298.519531 C 17.90625 308.742188 18.140625 317.582031 14.042969 321.804688 C 11.832031 324.066406 8.238281 325.164062 3.066406 325.164062 C 1.574219 325.164062 0.371094 326.367188 0.371094 327.859375 C 0.371094 329.351562 1.574219 330.554688 3.066406 330.554688 Z M 3.066406 330.535156 " fill-opacity="1" fill-rule="nonzero"/></g></g></g></g><g fill="#ffffff" fill-opacity="1"><g transform="translate(50.184112, 279.652114)"><g><path d="M 18.078125 0 L 18.078125 -183.234375 L 137.234375 -183.234375 L 137.234375 -155.40625 L 51.265625 -155.40625 L 51.265625 -105.65625 L 131.0625 -105.65625 L 131.0625 -77.828125 L 51.265625 -77.828125 L 51.265625 -27.828125 L 137.953125 -27.828125 L 137.953125 0 Z M 18.078125 0 "/></g></g></g><g transform="matrix(1, 0, 0, 1, 126, 20)"><g clip-path="url(#e60703f6f8)"><g fill="#081130" fill-opacity="1"><g transform="translate(0.390564, 267.623327)"><g><path d="M 153.859375 -136.265625 C 152.234375 -141.546875 150 -146.285156 147.15625 -150.484375 C 144.320312 -154.691406 140.929688 -158.289062 136.984375 -161.28125 C 133.046875 -164.28125 128.535156 -166.546875 123.453125 -168.078125 C 118.367188 -169.609375 112.832031 -170.375 106.84375 -170.375 C 96.09375 -170.375 86.515625 -167.671875 78.109375 -162.265625 C 69.703125 -156.859375 63.101562 -148.925781 58.3125 -138.46875 C 53.519531 -128.007812 51.125 -115.285156 51.125 -100.296875 C 51.125 -85.171875 53.5 -72.363281 58.25 -61.875 C 63.007812 -51.382812 69.625 -43.414062 78.09375 -37.96875 C 86.570312 -32.53125 96.414062 -29.8125 107.625 -29.8125 C 117.789062 -29.8125 126.601562 -31.765625 134.0625 -35.671875 C 141.519531 -39.585938 147.269531 -45.144531 151.3125 -52.34375 C 155.351562 -59.539062 157.375 -68 157.375 -77.71875 L 165.59375 -76.4375 L 111.234375 -76.4375 L 111.234375 -104.78125 L 192.46875 -104.78125 L 192.46875 -80.734375 C 192.46875 -63.597656 188.816406 -48.773438 181.515625 -36.265625 C 174.222656 -23.753906 164.1875 -14.125 151.40625 -7.375 C 138.632812 -0.632812 123.972656 2.734375 107.421875 2.734375 C 88.984375 2.734375 72.804688 -1.414062 58.890625 -9.71875 C 44.984375 -18.03125 34.132812 -29.859375 26.34375 -45.203125 C 18.550781 -60.554688 14.65625 -78.789062 14.65625 -99.90625 C 14.65625 -116.0625 16.953125 -130.492188 21.546875 -143.203125 C 26.148438 -155.910156 32.585938 -166.710938 40.859375 -175.609375 C 49.140625 -184.503906 58.847656 -191.28125 69.984375 -195.9375 C 81.128906 -200.601562 93.253906 -202.9375 106.359375 -202.9375 C 117.429688 -202.9375 127.753906 -201.320312 137.328125 -198.09375 C 146.910156 -194.863281 155.429688 -190.285156 162.890625 -184.359375 C 170.359375 -178.429688 176.503906 -171.394531 181.328125 -163.25 C 186.148438 -155.101562 189.3125 -146.109375 190.8125 -136.265625 Z M 153.859375 -136.265625 "/></g></g></g></g></g><g transform="matrix(1, 0, 0, 1, 134, 34)"><g clip-path="url(#c417651ea9)"><g fill="#ffffff" fill-opacity="1"><g transform="translate(1.206153, 243.513187)"><g><path d="M 140.8125 -124.71875 C 139.320312 -129.550781 137.28125 -133.890625 134.6875 -137.734375 C 132.09375 -141.578125 128.988281 -144.867188 125.375 -147.609375 C 121.769531 -150.359375 117.640625 -152.429688 112.984375 -153.828125 C 108.335938 -155.234375 103.269531 -155.9375 97.78125 -155.9375 C 87.945312 -155.9375 79.179688 -153.460938 71.484375 -148.515625 C 63.785156 -143.566406 57.742188 -136.304688 53.359375 -126.734375 C 48.984375 -117.160156 46.796875 -105.515625 46.796875 -91.796875 C 46.796875 -77.953125 48.972656 -66.226562 53.328125 -56.625 C 57.679688 -47.03125 63.734375 -39.738281 71.484375 -34.75 C 79.234375 -29.769531 88.238281 -27.28125 98.5 -27.28125 C 107.800781 -27.28125 115.867188 -29.066406 122.703125 -32.640625 C 129.535156 -36.222656 134.800781 -41.3125 138.5 -47.90625 C 142.195312 -54.5 144.046875 -62.238281 144.046875 -71.125 L 151.5625 -69.96875 L 101.8125 -69.96875 L 101.8125 -95.90625 L 176.15625 -95.90625 L 176.15625 -73.90625 C 176.15625 -58.21875 172.816406 -44.644531 166.140625 -33.1875 C 159.460938 -21.738281 150.273438 -12.925781 138.578125 -6.75 C 126.890625 -0.582031 113.472656 2.5 98.328125 2.5 C 81.441406 2.5 66.628906 -1.300781 53.890625 -8.90625 C 41.160156 -16.507812 31.234375 -27.332031 24.109375 -41.375 C 16.984375 -55.425781 13.421875 -72.113281 13.421875 -91.4375 C 13.421875 -106.226562 15.519531 -119.4375 19.71875 -131.0625 C 23.925781 -142.695312 29.816406 -152.582031 37.390625 -160.71875 C 44.972656 -168.863281 53.863281 -175.066406 64.0625 -179.328125 C 74.257812 -183.597656 85.351562 -185.734375 97.34375 -185.734375 C 107.476562 -185.734375 116.929688 -184.253906 125.703125 -181.296875 C 134.472656 -178.347656 142.269531 -174.160156 149.09375 -168.734375 C 155.925781 -163.304688 161.546875 -156.863281 165.953125 -149.40625 C 170.367188 -141.945312 173.265625 -133.71875 174.640625 -124.71875 Z M 140.8125 -124.71875 "/></g></g></g></g></g></svg>