<svg xmlns="http://www.w3.org/2000/svg" xmlns:xlink="http://www.w3.org/1999/xlink" width="500" zoomAndPan="magnify" viewBox="0 0 375 374.999991" height="500" preserveAspectRatio="xMidYMid meet" version="1.0"><defs><g/><clipPath id="49b0e8a847"><path d="M 328.125 0 L 375 0 L 375 375 L 328.125 375 Z M 328.125 0 " clip-rule="nonzero"/></clipPath></defs><path fill="#d685ff" d="M 43.6875 375.019531 C 36.054688 375.019531 30.542969 373.164062 26.828125 369.34375 C 20.355469 362.691406 20.660156 351.464844 21.027344 338.460938 C 21.109375 335.273438 21.210938 331.96875 21.210938 328.601562 L 21.210938 217.609375 C 21.210938 208.464844 16.640625 200.011719 8.984375 195.03125 L 1.453125 190.113281 C 0.59375 189.5 0.0625 188.542969 0.0625 187.519531 C 0.0625 186.480469 0.574219 185.519531 1.453125 184.949219 C 13.824219 176.824219 21.210938 163.144531 21.210938 148.367188 L 21.210938 46.441406 C 21.210938 43.050781 21.128906 39.765625 21.027344 36.582031 C 20.660156 23.578125 20.355469 12.328125 26.828125 5.695312 C 30.542969 1.878906 36.054688 0.0195312 43.6875 0.0195312 C 45.382812 0.0195312 46.75 1.386719 46.75 3.082031 C 46.75 4.777344 45.382812 6.144531 43.6875 6.144531 C 37.789062 6.144531 33.707031 7.390625 31.214844 9.960938 C 26.539062 14.757812 26.828125 24.800781 27.152344 36.417969 C 27.234375 39.644531 27.335938 42.992188 27.335938 46.460938 L 27.335938 148.386719 C 27.335938 163.71875 20.375 177.988281 8.535156 187.398438 L 12.332031 189.886719 C 21.722656 196.03125 27.335938 206.382812 27.335938 217.609375 L 27.335938 328.601562 C 27.335938 332.070312 27.234375 335.398438 27.152344 338.644531 C 26.828125 350.257812 26.5625 360.300781 31.214844 365.097656 C 33.726562 367.671875 37.808594 368.917969 43.6875 368.917969 C 45.382812 368.917969 46.75 370.285156 46.75 371.980469 C 46.75 373.671875 45.382812 375.039062 43.6875 375.039062 Z M 43.6875 375.019531 " fill-opacity="1" fill-rule="nonzero"/><g clip-path="url(#49b0e8a847)"><path fill="#d685ff" d="M 331.3125 375.019531 C 338.945312 375.019531 344.457031 373.164062 348.171875 369.34375 C 354.644531 362.691406 354.339844 351.464844 353.972656 338.460938 C 353.890625 335.273438 353.789062 331.96875 353.789062 328.601562 L 353.789062 217.609375 C 353.789062 208.464844 358.359375 200.011719 366.015625 195.03125 L 373.546875 190.113281 C 374.40625 189.5 374.9375 188.542969 374.9375 187.519531 C 374.9375 186.480469 374.425781 185.519531 373.546875 184.949219 C 361.175781 176.824219 353.789062 163.144531 353.789062 148.367188 L 353.789062 46.441406 C 353.789062 43.050781 353.871094 39.765625 353.972656 36.582031 C 354.339844 23.578125 354.644531 12.328125 348.171875 5.695312 C 344.457031 1.878906 338.945312 0.0195312 331.3125 0.0195312 C 329.617188 0.0195312 328.25 1.386719 328.25 3.082031 C 328.25 4.777344 329.617188 6.144531 331.3125 6.144531 C 337.210938 6.144531 341.292969 7.390625 343.785156 9.960938 C 348.460938 14.757812 348.171875 24.800781 347.847656 36.417969 C 347.765625 39.644531 347.664062 42.992188 347.664062 46.460938 L 347.664062 148.386719 C 347.664062 163.71875 354.625 177.988281 366.464844 187.398438 L 362.667969 189.886719 C 353.277344 196.03125 347.664062 206.382812 347.664062 217.609375 L 347.664062 328.601562 C 347.664062 332.070312 347.765625 335.398438 347.847656 338.644531 C 348.171875 350.257812 348.4375 360.300781 343.785156 365.097656 C 341.273438 367.671875 337.191406 368.917969 331.3125 368.917969 C 329.617188 368.917969 328.25 370.285156 328.25 371.980469 C 328.25 373.671875 329.617188 375.039062 331.3125 375.039062 Z M 331.3125 375.019531 " fill-opacity="1" fill-rule="nonzero"/></g><g fill="#ffffff" fill-opacity="1"><g transform="translate(31.453356, 291.334577)"><g><path d="M 20.53125 0 L 20.53125 -208.1875 L 155.9375 -208.1875 L 155.9375 -176.578125 L 58.25 -176.578125 L 58.25 -120.0625 L 148.921875 -120.0625 L 148.921875 -88.4375 L 58.25 -88.4375 L 58.25 -31.609375 L 156.75 -31.609375 L 156.75 0 Z M 20.53125 0 "/></g></g></g><g fill="#111928" fill-opacity="1"><g transform="translate(118.064885, 301.264351)"><g><path d="M 174.8125 -154.828125 C 172.96875 -160.828125 170.429688 -166.210938 167.203125 -170.984375 C 163.984375 -175.765625 160.132812 -179.859375 155.65625 -183.265625 C 151.175781 -186.671875 146.046875 -189.242188 140.265625 -190.984375 C 134.492188 -192.722656 128.203125 -193.59375 121.390625 -193.59375 C 109.179688 -193.59375 98.300781 -190.519531 88.75 -184.375 C 79.195312 -178.226562 71.695312 -169.210938 66.25 -157.328125 C 60.8125 -145.441406 58.09375 -130.984375 58.09375 -113.953125 C 58.09375 -96.773438 60.789062 -82.222656 66.1875 -70.296875 C 71.59375 -58.378906 79.109375 -49.328125 88.734375 -43.140625 C 98.367188 -36.960938 109.550781 -33.875 122.28125 -33.875 C 133.832031 -33.875 143.847656 -36.09375 152.328125 -40.53125 C 160.804688 -44.976562 167.335938 -51.289062 171.921875 -59.46875 C 176.515625 -67.65625 178.8125 -77.265625 178.8125 -88.296875 L 188.140625 -86.859375 L 126.390625 -86.859375 L 126.390625 -119.0625 L 218.6875 -119.0625 L 218.6875 -91.734375 C 218.6875 -72.265625 214.539062 -55.421875 206.25 -41.203125 C 197.957031 -26.984375 186.554688 -16.039062 172.046875 -8.375 C 157.535156 -0.71875 140.875 3.109375 122.0625 3.109375 C 101.101562 3.109375 82.71875 -1.609375 66.90625 -11.046875 C 51.101562 -20.492188 38.773438 -33.9375 29.921875 -51.375 C 21.078125 -68.8125 16.65625 -89.523438 16.65625 -113.515625 C 16.65625 -131.878906 19.265625 -148.28125 24.484375 -162.71875 C 29.710938 -177.15625 37.023438 -189.425781 46.421875 -199.53125 C 55.828125 -209.632812 66.859375 -217.332031 79.515625 -222.625 C 92.179688 -227.925781 105.957031 -230.578125 120.84375 -230.578125 C 133.425781 -230.578125 145.160156 -228.742188 156.046875 -225.078125 C 166.929688 -221.410156 176.613281 -216.207031 185.09375 -209.46875 C 193.570312 -202.726562 200.550781 -194.726562 206.03125 -185.46875 C 211.507812 -176.21875 215.097656 -166.003906 216.796875 -154.828125 Z M 174.8125 -154.828125 "/></g></g></g><g fill="#ffffff" fill-opacity="1"><g transform="translate(128.081531, 289.776792)"><g><path d="M 160.015625 -141.703125 C 158.316406 -147.191406 155.992188 -152.125 153.046875 -156.5 C 150.097656 -160.875 146.570312 -164.617188 142.46875 -167.734375 C 138.375 -170.847656 133.679688 -173.203125 128.390625 -174.796875 C 123.109375 -176.390625 117.347656 -177.1875 111.109375 -177.1875 C 99.929688 -177.1875 89.96875 -174.375 81.21875 -168.75 C 72.476562 -163.125 65.617188 -154.875 60.640625 -144 C 55.660156 -133.125 53.171875 -119.890625 53.171875 -104.296875 C 53.171875 -88.578125 55.644531 -75.257812 60.59375 -64.34375 C 65.539062 -53.4375 72.414062 -45.148438 81.21875 -39.484375 C 90.03125 -33.828125 100.265625 -31 111.921875 -31 C 122.492188 -31 131.660156 -33.03125 139.421875 -37.09375 C 147.179688 -41.164062 153.160156 -46.945312 157.359375 -54.4375 C 161.566406 -61.925781 163.671875 -70.71875 163.671875 -80.8125 L 172.203125 -79.5 L 115.6875 -79.5 L 115.6875 -108.96875 L 200.15625 -108.96875 L 200.15625 -83.96875 C 200.15625 -66.144531 196.359375 -50.726562 188.765625 -37.71875 C 181.179688 -24.707031 170.75 -14.691406 157.46875 -7.671875 C 144.1875 -0.660156 128.9375 2.84375 111.71875 2.84375 C 92.539062 2.84375 75.71875 -1.472656 61.25 -10.109375 C 46.78125 -18.753906 35.492188 -31.054688 27.390625 -47.015625 C 19.296875 -62.972656 15.25 -81.929688 15.25 -103.890625 C 15.25 -120.703125 17.632812 -135.710938 22.40625 -148.921875 C 27.1875 -162.140625 33.878906 -173.375 42.484375 -182.625 C 51.097656 -191.875 61.195312 -198.921875 72.78125 -203.765625 C 84.375 -208.617188 96.984375 -211.046875 110.609375 -211.046875 C 122.128906 -211.046875 132.867188 -209.363281 142.828125 -206 C 152.785156 -202.644531 161.644531 -197.882812 169.40625 -191.71875 C 177.164062 -185.550781 183.550781 -178.234375 188.5625 -169.765625 C 193.582031 -161.296875 196.875 -151.941406 198.4375 -141.703125 Z M 160.015625 -141.703125 "/></g></g></g></svg>